<svg xmlns="http://www.w3.org/2000/svg" viewBox="0 0 512 512" role="img" aria-label="土城廣厚宮抽獎輪盤標誌">
  <defs>
    <radialGradient id="gold" cx="35%" cy="25%" r="75%">
      <stop offset="0%" stop-color="#fff6bc"/>
      <stop offset="45%" stop-color="#f7c642"/>
      <stop offset="100%" stop-color="#b46b05"/>
    </radialGradient>
    <linearGradient id="red" x1="0" x2="1" y1="0" y2="1">
      <stop offset="0%" stop-color="#d82324"/>
      <stop offset="100%" stop-color="#8d0a16"/>
    </linearGradient>
  </defs>
  <rect width="512" height="512" rx="96" fill="#8d0a16"/>
  <circle cx="256" cy="242" r="184" fill="#6d0710"/>
  <path d="M256 58a184 184 0 0 1 159 92L256 242Z" fill="#f6c642"/>
  <path d="M415 150a184 184 0 0 1 0 184L256 242Z" fill="#d82324"/>
  <path d="M415 334a184 184 0 0 1-159 92V242Z" fill="#ffe39a"/>
  <path d="M256 426a184 184 0 0 1-159-92l159-92Z" fill="#b90f1d"/>
  <path d="M97 334a184 184 0 0 1 0-184l159 92Z" fill="#f7b51d"/>
  <path d="M97 150A184 184 0 0 1 256 58v184Z" fill="#d33a17"/>
  <circle cx="256" cy="242" r="190" fill="none" stroke="#fbe39a" stroke-width="18"/>
  <circle cx="256" cy="242" r="82" fill="url(#gold)" stroke="#fff1a7" stroke-width="12"/>
  <text x="256" y="282" text-anchor="middle" font-size="96" font-family="serif" font-weight="900" fill="#9d0e18">福</text>
  <path d="M153 430c-36 0-61-17-61-41 0-28 34-55 76-55h176c42 0 76 27 76 55 0 24-25 41-61 41Z" fill="url(#gold)" stroke="#7b2708" stroke-width="12"/>
  <path d="M162 386c28 16 160 16 188 0" fill="none" stroke="#fff1aa" stroke-width="13" stroke-linecap="round"/>
  <text x="256" y="416" text-anchor="middle" font-size="46" font-family="serif" font-weight="900" fill="#9d0e18">財</text>
</svg>
